<mxfile host="Electron" agent="Mozilla/5.0 (Windows NT 10.0; Win64; x64) AppleWebKit/537.36 (KHTML, like Gecko) draw.io/24.7.8 Chrome/128.0.6613.36 Electron/32.0.1 Safari/537.36" version="24.7.8">
  <diagram name="Page-1" id="XJ04fxFgUGnA7VRgrxKO">
    <mxGraphModel dx="2200" dy="2588" grid="1" gridSize="10" guides="1" tooltips="1" connect="1" arrows="1" fold="1" page="1" pageScale="1" pageWidth="850" pageHeight="1100" math="0" shadow="0">
      <root>
        <mxCell id="0" />
        <mxCell id="1" parent="0" />
        <mxCell id="MTKer7UUviG5hREiB2Xr-40" value="t" style="rounded=0;whiteSpace=wrap;html=1;fillColor=#FFF4C3;glass=0;shadow=0;labelBackgroundColor=none;" vertex="1" parent="1">
          <mxGeometry x="35" y="-75" width="780" height="1840" as="geometry" />
        </mxCell>
        <mxCell id="MTKer7UUviG5hREiB2Xr-19" style="edgeStyle=orthogonalEdgeStyle;rounded=0;orthogonalLoop=1;jettySize=auto;html=1;exitX=0.5;exitY=1;exitDx=0;exitDy=0;entryX=0.5;entryY=0;entryDx=0;entryDy=0;" edge="1" parent="1" source="MTKer7UUviG5hREiB2Xr-2" target="MTKer7UUviG5hREiB2Xr-3">
          <mxGeometry relative="1" as="geometry" />
        </mxCell>
        <mxCell id="MTKer7UUviG5hREiB2Xr-2" value="Input Array&lt;div&gt;Input Target&lt;/div&gt;" style="shape=parallelogram;perimeter=parallelogramPerimeter;whiteSpace=wrap;html=1;fixedSize=1;" vertex="1" parent="1">
          <mxGeometry x="365" y="150" width="120" height="60" as="geometry" />
        </mxCell>
        <mxCell id="MTKer7UUviG5hREiB2Xr-37" style="edgeStyle=orthogonalEdgeStyle;rounded=0;orthogonalLoop=1;jettySize=auto;html=1;exitX=0.5;exitY=1;exitDx=0;exitDy=0;entryX=0.5;entryY=0;entryDx=0;entryDy=0;" edge="1" parent="1" source="MTKer7UUviG5hREiB2Xr-3" target="MTKer7UUviG5hREiB2Xr-36">
          <mxGeometry relative="1" as="geometry" />
        </mxCell>
        <mxCell id="MTKer7UUviG5hREiB2Xr-3" value="findSolution()" style="swimlane;whiteSpace=wrap;html=1;swimlaneFillColor=#A9C4EB;" vertex="1" parent="1">
          <mxGeometry x="140" y="280" width="570" height="1130" as="geometry" />
        </mxCell>
        <mxCell id="MTKer7UUviG5hREiB2Xr-18" style="edgeStyle=orthogonalEdgeStyle;rounded=0;orthogonalLoop=1;jettySize=auto;html=1;exitX=0.5;exitY=1;exitDx=0;exitDy=0;entryX=0.5;entryY=0;entryDx=0;entryDy=0;" edge="1" parent="MTKer7UUviG5hREiB2Xr-3" source="MTKer7UUviG5hREiB2Xr-4" target="MTKer7UUviG5hREiB2Xr-9">
          <mxGeometry relative="1" as="geometry" />
        </mxCell>
        <mxCell id="MTKer7UUviG5hREiB2Xr-4" value="Start" style="ellipse;whiteSpace=wrap;html=1;" vertex="1" parent="MTKer7UUviG5hREiB2Xr-3">
          <mxGeometry x="250" y="53" width="80" height="37" as="geometry" />
        </mxCell>
        <mxCell id="MTKer7UUviG5hREiB2Xr-17" style="edgeStyle=orthogonalEdgeStyle;rounded=0;orthogonalLoop=1;jettySize=auto;html=1;exitX=0.5;exitY=1;exitDx=0;exitDy=0;entryX=0.5;entryY=0;entryDx=0;entryDy=0;" edge="1" parent="MTKer7UUviG5hREiB2Xr-3" source="MTKer7UUviG5hREiB2Xr-9" target="MTKer7UUviG5hREiB2Xr-11">
          <mxGeometry relative="1" as="geometry" />
        </mxCell>
        <mxCell id="MTKer7UUviG5hREiB2Xr-9" value="&lt;div&gt;Initiate an empty array &quot;solution&quot; of size 2&lt;/div&gt;" style="rounded=1;whiteSpace=wrap;html=1;absoluteArcSize=1;arcSize=14;strokeWidth=1;" vertex="1" parent="MTKer7UUviG5hREiB2Xr-3">
          <mxGeometry x="240" y="120" width="100" height="50" as="geometry" />
        </mxCell>
        <mxCell id="MTKer7UUviG5hREiB2Xr-16" style="edgeStyle=orthogonalEdgeStyle;rounded=0;orthogonalLoop=1;jettySize=auto;html=1;exitX=0.5;exitY=1;exitDx=0;exitDy=0;entryX=0.5;entryY=0;entryDx=0;entryDy=0;" edge="1" parent="MTKer7UUviG5hREiB2Xr-3" source="MTKer7UUviG5hREiB2Xr-11" target="MTKer7UUviG5hREiB2Xr-12">
          <mxGeometry relative="1" as="geometry" />
        </mxCell>
        <mxCell id="MTKer7UUviG5hREiB2Xr-11" value="Initiate an array pointer &quot;A&quot; to point to the first element" style="rounded=1;whiteSpace=wrap;html=1;" vertex="1" parent="MTKer7UUviG5hREiB2Xr-3">
          <mxGeometry x="230" y="210" width="120" height="60" as="geometry" />
        </mxCell>
        <mxCell id="MTKer7UUviG5hREiB2Xr-15" value="Yes" style="edgeStyle=orthogonalEdgeStyle;rounded=0;orthogonalLoop=1;jettySize=auto;html=1;entryX=0.5;entryY=0;entryDx=0;entryDy=0;" edge="1" parent="MTKer7UUviG5hREiB2Xr-3" source="MTKer7UUviG5hREiB2Xr-12" target="MTKer7UUviG5hREiB2Xr-14">
          <mxGeometry relative="1" as="geometry" />
        </mxCell>
        <mxCell id="MTKer7UUviG5hREiB2Xr-34" style="edgeStyle=orthogonalEdgeStyle;rounded=0;orthogonalLoop=1;jettySize=auto;html=1;exitX=0;exitY=0.5;exitDx=0;exitDy=0;entryX=0;entryY=0.5;entryDx=0;entryDy=0;" edge="1" parent="MTKer7UUviG5hREiB2Xr-3" source="MTKer7UUviG5hREiB2Xr-12" target="MTKer7UUviG5hREiB2Xr-32">
          <mxGeometry relative="1" as="geometry">
            <Array as="points">
              <mxPoint x="100" y="350" />
              <mxPoint x="100" y="1060" />
            </Array>
          </mxGeometry>
        </mxCell>
        <mxCell id="MTKer7UUviG5hREiB2Xr-35" value="No" style="edgeLabel;html=1;align=center;verticalAlign=middle;resizable=0;points=[];" vertex="1" connectable="0" parent="MTKer7UUviG5hREiB2Xr-34">
          <mxGeometry x="-0.8715" y="-6" relative="1" as="geometry">
            <mxPoint y="6" as="offset" />
          </mxGeometry>
        </mxCell>
        <mxCell id="MTKer7UUviG5hREiB2Xr-12" value="Is pointer A&lt;div&gt;within the bounds&lt;/div&gt;&lt;div&gt;of the&amp;nbsp;&lt;span style=&quot;background-color: initial;&quot;&gt;array?&lt;/span&gt;&lt;/div&gt;" style="rhombus;whiteSpace=wrap;html=1;" vertex="1" parent="MTKer7UUviG5hREiB2Xr-3">
          <mxGeometry x="220" y="290" width="140" height="120" as="geometry" />
        </mxCell>
        <mxCell id="MTKer7UUviG5hREiB2Xr-21" style="edgeStyle=orthogonalEdgeStyle;rounded=0;orthogonalLoop=1;jettySize=auto;html=1;exitX=0.5;exitY=1;exitDx=0;exitDy=0;entryX=0.5;entryY=0;entryDx=0;entryDy=0;" edge="1" parent="MTKer7UUviG5hREiB2Xr-3" source="MTKer7UUviG5hREiB2Xr-14" target="MTKer7UUviG5hREiB2Xr-20">
          <mxGeometry relative="1" as="geometry" />
        </mxCell>
        <mxCell id="MTKer7UUviG5hREiB2Xr-14" value="Initiate an array pointer &quot;B&quot; to point to the element after pointer A" style="rounded=1;whiteSpace=wrap;html=1;" vertex="1" parent="MTKer7UUviG5hREiB2Xr-3">
          <mxGeometry x="230" y="460" width="120" height="60" as="geometry" />
        </mxCell>
        <mxCell id="MTKer7UUviG5hREiB2Xr-24" style="edgeStyle=orthogonalEdgeStyle;rounded=0;orthogonalLoop=1;jettySize=auto;html=1;exitX=1;exitY=0.5;exitDx=0;exitDy=0;" edge="1" parent="MTKer7UUviG5hREiB2Xr-3" source="MTKer7UUviG5hREiB2Xr-20" target="MTKer7UUviG5hREiB2Xr-23">
          <mxGeometry relative="1" as="geometry" />
        </mxCell>
        <mxCell id="MTKer7UUviG5hREiB2Xr-26" value="No" style="edgeLabel;html=1;align=center;verticalAlign=middle;resizable=0;points=[];" vertex="1" connectable="0" parent="MTKer7UUviG5hREiB2Xr-24">
          <mxGeometry x="-0.5225" y="-1" relative="1" as="geometry">
            <mxPoint x="1" as="offset" />
          </mxGeometry>
        </mxCell>
        <mxCell id="MTKer7UUviG5hREiB2Xr-29" value="Yes" style="edgeStyle=orthogonalEdgeStyle;rounded=0;orthogonalLoop=1;jettySize=auto;html=1;exitX=0.5;exitY=1;exitDx=0;exitDy=0;entryX=0.5;entryY=0;entryDx=0;entryDy=0;" edge="1" parent="MTKer7UUviG5hREiB2Xr-3" source="MTKer7UUviG5hREiB2Xr-20" target="MTKer7UUviG5hREiB2Xr-27">
          <mxGeometry relative="1" as="geometry" />
        </mxCell>
        <mxCell id="MTKer7UUviG5hREiB2Xr-20" value="Is pointer B&lt;div&gt;within&amp;nbsp;&lt;span style=&quot;background-color: initial;&quot;&gt;the bounds&lt;/span&gt;&lt;div&gt;of the array?&lt;/div&gt;&lt;/div&gt;" style="rhombus;whiteSpace=wrap;html=1;" vertex="1" parent="MTKer7UUviG5hREiB2Xr-3">
          <mxGeometry x="220" y="550" width="140" height="120" as="geometry" />
        </mxCell>
        <mxCell id="MTKer7UUviG5hREiB2Xr-25" style="edgeStyle=orthogonalEdgeStyle;rounded=0;orthogonalLoop=1;jettySize=auto;html=1;exitX=0.5;exitY=0;exitDx=0;exitDy=0;entryX=1;entryY=0.5;entryDx=0;entryDy=0;" edge="1" parent="MTKer7UUviG5hREiB2Xr-3" source="MTKer7UUviG5hREiB2Xr-23" target="MTKer7UUviG5hREiB2Xr-12">
          <mxGeometry relative="1" as="geometry" />
        </mxCell>
        <mxCell id="MTKer7UUviG5hREiB2Xr-23" value="Move Pointer A to the next element" style="rounded=1;whiteSpace=wrap;html=1;" vertex="1" parent="MTKer7UUviG5hREiB2Xr-3">
          <mxGeometry x="380" y="460" width="120" height="60" as="geometry" />
        </mxCell>
        <mxCell id="MTKer7UUviG5hREiB2Xr-28" value="No" style="edgeStyle=orthogonalEdgeStyle;rounded=0;orthogonalLoop=1;jettySize=auto;html=1;exitX=1;exitY=0.5;exitDx=0;exitDy=0;" edge="1" parent="MTKer7UUviG5hREiB2Xr-3" source="MTKer7UUviG5hREiB2Xr-27">
          <mxGeometry relative="1" as="geometry">
            <mxPoint x="440" y="520" as="targetPoint" />
          </mxGeometry>
        </mxCell>
        <mxCell id="MTKer7UUviG5hREiB2Xr-31" value="Yes" style="edgeStyle=orthogonalEdgeStyle;rounded=0;orthogonalLoop=1;jettySize=auto;html=1;exitX=0.5;exitY=1;exitDx=0;exitDy=0;entryX=0.5;entryY=0;entryDx=0;entryDy=0;" edge="1" parent="MTKer7UUviG5hREiB2Xr-3" source="MTKer7UUviG5hREiB2Xr-27" target="MTKer7UUviG5hREiB2Xr-30">
          <mxGeometry relative="1" as="geometry" />
        </mxCell>
        <mxCell id="MTKer7UUviG5hREiB2Xr-27" value="Is sum of elements&lt;div&gt;at both the pointer&lt;div&gt;equal to the target?&lt;/div&gt;&lt;/div&gt;" style="rhombus;whiteSpace=wrap;html=1;" vertex="1" parent="MTKer7UUviG5hREiB2Xr-3">
          <mxGeometry x="210" y="710" width="160" height="120" as="geometry" />
        </mxCell>
        <mxCell id="MTKer7UUviG5hREiB2Xr-33" style="edgeStyle=orthogonalEdgeStyle;rounded=0;orthogonalLoop=1;jettySize=auto;html=1;exitX=0.5;exitY=1;exitDx=0;exitDy=0;entryX=0.5;entryY=0;entryDx=0;entryDy=0;" edge="1" parent="MTKer7UUviG5hREiB2Xr-3" source="MTKer7UUviG5hREiB2Xr-30" target="MTKer7UUviG5hREiB2Xr-32">
          <mxGeometry relative="1" as="geometry" />
        </mxCell>
        <mxCell id="MTKer7UUviG5hREiB2Xr-30" value="Set the solution array to hold&lt;div&gt;the two elements&lt;div&gt;at pointer A and B&lt;/div&gt;&lt;/div&gt;" style="rounded=1;whiteSpace=wrap;html=1;" vertex="1" parent="MTKer7UUviG5hREiB2Xr-3">
          <mxGeometry x="230" y="900" width="120" height="60" as="geometry" />
        </mxCell>
        <mxCell id="MTKer7UUviG5hREiB2Xr-32" value="Return solution array" style="ellipse;whiteSpace=wrap;html=1;" vertex="1" parent="MTKer7UUviG5hREiB2Xr-3">
          <mxGeometry x="230" y="1030" width="120" height="60" as="geometry" />
        </mxCell>
        <mxCell id="MTKer7UUviG5hREiB2Xr-6" style="edgeStyle=orthogonalEdgeStyle;rounded=0;orthogonalLoop=1;jettySize=auto;html=1;entryX=0.5;entryY=0;entryDx=0;entryDy=0;" edge="1" parent="1" source="MTKer7UUviG5hREiB2Xr-5" target="MTKer7UUviG5hREiB2Xr-2">
          <mxGeometry relative="1" as="geometry" />
        </mxCell>
        <mxCell id="MTKer7UUviG5hREiB2Xr-5" value="Start" style="ellipse;whiteSpace=wrap;html=1;" vertex="1" parent="1">
          <mxGeometry x="390" y="50" width="70" height="40" as="geometry" />
        </mxCell>
        <mxCell id="MTKer7UUviG5hREiB2Xr-39" style="edgeStyle=orthogonalEdgeStyle;rounded=0;orthogonalLoop=1;jettySize=auto;html=1;exitX=0.5;exitY=1;exitDx=0;exitDy=0;" edge="1" parent="1" source="MTKer7UUviG5hREiB2Xr-36" target="MTKer7UUviG5hREiB2Xr-38">
          <mxGeometry relative="1" as="geometry" />
        </mxCell>
        <mxCell id="MTKer7UUviG5hREiB2Xr-36" value="Display&lt;div&gt;the solution&lt;/div&gt;" style="shape=parallelogram;perimeter=parallelogramPerimeter;whiteSpace=wrap;html=1;fixedSize=1;" vertex="1" parent="1">
          <mxGeometry x="365" y="1460" width="120" height="60" as="geometry" />
        </mxCell>
        <mxCell id="MTKer7UUviG5hREiB2Xr-38" value="End" style="ellipse;whiteSpace=wrap;html=1;" vertex="1" parent="1">
          <mxGeometry x="390" y="1600" width="70" height="40" as="geometry" />
        </mxCell>
      </root>
    </mxGraphModel>
  </diagram>
</mxfile>
